<svg height="512pt" viewBox="0 -106 512 512" width="512pt" xmlns="http://www.w3.org/2000/svg"><path d="m446.5 95.5h-381c-5.523438 0-10-4.476562-10-10v-68c0-5.523438 4.476562-10 10-10h381c5.523438 0 10 4.476562 10 10v68c0 5.523438-4.476562 10-10 10zm0 0" fill="#de9962"/><path d="m446.5 7.5h-30c5.523438 0 10 4.476562 10 10v68c0 5.523438-4.476562 10-10 10h30c5.523438 0 10-4.476562 10-10v-68c0-5.523438-4.476562-10-10-10zm0 0" fill="#d48b53"/><path d="m457.992188 174.5h-403.984376c-8.28125 0-15-6.714844-15-15s6.71875-15 15-15h403.984376c8.28125 0 15 6.714844 15 15s-6.71875 15-15 15zm0 0" fill="#de9962"/><path d="m457.992188 144.5h-30c8.28125 0 15 6.714844 15 15s-6.71875 15-15 15h30c8.28125 0 15-6.714844 15-15s-6.71875-15-15-15zm0 0" fill="#d48b53"/><path d="m489.5 291.5h-467c-8.285156 0-15-6.714844-15-15s6.714844-15 15-15h467c8.285156 0 15 6.714844 15 15s-6.714844 15-15 15zm0 0" fill="#de9962"/><path d="m489.5 261.5h-30c8.285156 0 15 6.714844 15 15s-6.714844 15-15 15h30c8.285156 0 15-6.714844 15-15s-6.714844-15-15-15zm0 0" fill="#d48b53"/><g fill="#78909c"><path d="m89.492188 95.5h30v49h-30zm0 0"/><path d="m392.507812 95.5h30v49h-30zm0 0"/><path d="m73.246094 174.5h30v87h-30zm0 0"/><path d="m408.753906 174.5h30v87h-30zm0 0"/></g><path d="m159.847656 15h20.152344c4.140625 0 7.5-3.355469 7.5-7.5s-3.359375-7.5-7.5-7.5h-20.152344c-4.144531 0-7.5 3.355469-7.5 7.5s3.355469 7.5 7.5 7.5zm0 0"/><path d="m489.5 254h-43.246094v-8.421875c0-4.144531-3.355468-7.5-7.5-7.5-4.140625 0-7.5 3.355469-7.5 7.5v8.421875h-15v-72h15v31.269531c0 4.144531 3.359375 7.5 7.5 7.5 4.144532 0 7.5-3.355469 7.5-7.5v-31.269531h11.738282c12.40625 0 22.5-10.09375 22.5-22.5s-10.09375-22.5-22.5-22.5h-27.980469v-34h16.488281c9.648438 0 17.5-7.851562 17.5-17.5v-68c0-9.648438-7.851562-17.5-17.5-17.5h-234.347656c-4.140625 0-7.5 3.355469-7.5 7.5s3.359375 7.5 7.5 7.5h234.347656c1.378906 0 2.5 1.121094 2.5 2.5v68c0 1.378906-1.121094 2.5-2.5 2.5h-381c-1.378906 0-2.5-1.121094-2.5-2.5v-68c0-1.378906 1.121094-2.5 2.5-2.5h62.578125c4.140625 0 7.5-3.355469 7.5-7.5s-3.359375-7.5-7.5-7.5h-62.578125c-9.648438 0-17.5 7.851562-17.5 17.5v68c0 9.648438 7.851562 17.5 17.5 17.5h16.492188v34h-27.984376c-12.40625 0-22.5 10.09375-22.5 22.5s10.09375 22.5 22.5 22.5h11.738282v72h-43.246094c-12.40625 0-22.5 10.09375-22.5 22.5s10.09375 22.5 22.5 22.5h467c12.40625 0 22.5-10.09375 22.5-22.5s-10.09375-22.5-22.5-22.5zm-88.246094 0h-290.507812v-72h290.507812zm13.757813-151v34h-15v-34zm-288.019531 34v-34h258.019531v34zm-30-34h15v34h-15zm-50.484376 56.5c0-4.136719 3.363282-7.5 7.5-7.5h403.984376c4.136718 0 7.5 3.363281 7.5 7.5s-3.363282 7.5-7.5 7.5h-403.984376c-4.136718 0-7.5-3.363281-7.5-7.5zm34.238282 22.5h15v72h-15zm408.753906 102h-467c-4.136719 0-7.5-3.363281-7.5-7.5s3.363281-7.5 7.5-7.5h467c4.136719 0 7.5 3.363281 7.5 7.5s-3.363281 7.5-7.5 7.5zm0 0"/><path d="m96.992188 43.132812v12.605469c0 4.144531 3.355468 7.5 7.5 7.5 4.140624 0 7.5-3.355469 7.5-7.5v-12.605469c0-4.144531-3.359376-7.5-7.5-7.5-4.144532 0-7.5 3.355469-7.5 7.5zm0 0"/><path d="m416.253906 55.738281v-12.605469c0-4.144531-3.355468-7.5-7.5-7.5-4.140625 0-7.5 3.355469-7.5 7.5v12.605469c0 4.144531 3.359375 7.5 7.5 7.5 4.144532 0 7.5-3.355469 7.5-7.5zm0 0"/></svg>