<svg id="Capa_1" enable-background="new 0 0 512 512" height="512" viewBox="0 0 512 512" width="512" xmlns="http://www.w3.org/2000/svg"><path d="m241 117.002h30v288.498h-30z" fill="#e5e5e5"/><path d="m86.5 405.5v-.25c0-19.054 15.446-34.75 34.5-34.75h270c19.054 0 34.5 15.696 34.5 34.75v.25l-169.5 26.833z" fill="#efc059"/><path d="m425.5 405.25v.25h-30v-.25c0-19.05-15.45-34.75-34.5-34.75h30c19.05 0 34.5 15.7 34.5 34.75z" fill="#dba246"/><path d="m283.5 340.5h-55c-35.898 0-65 29.101-65 65l92.5 26.833 92.5-26.833c0-35.899-29.101-65-65-65z" fill="#f4d382"/><path d="m348.5 405.5h-30c0-17.95-7.28-34.2-19.04-45.96s-28.01-19.04-45.96-19.04h30c17.95 0 34.2 7.28 45.96 19.04s19.04 28.01 19.04 45.96z" fill="#efc059"/><path d="m406.961 504.5h-301.922c-13.352 0-25.097-8.824-28.814-21.648l-13.725-47.352 189.5-12 197.5 12-13.725 47.352c-3.717 12.824-15.462 21.648-28.814 21.648z" fill="#ddb180"/><path d="m449.5 435.5-13.73 47.35c-3.71 12.83-15.46 21.65-28.81 21.65h-30c13.35 0 25.1-8.82 28.81-21.65l13.73-47.35z" fill="#c69060"/><path d="m454.5 435.5h-397c-5.523 0-10-4.477-10-10v-10c0-5.523 4.477-10 10-10h397c5.523 0 10 4.477 10 10v10c0 5.523-4.477 10-10 10z" fill="#c69060"/><path d="m464.5 415.5v10c0 5.52-4.48 10-10 10h-30c1.74 0 3.37-.44 4.8-1.23 3.1-1.69 5.2-4.99 5.2-8.77v-10c0-5.52-4.48-10-10-10h30c5.52 0 10 4.48 10 10z" fill="#a75"/><path d="m411.5 148.5h-311c-5.523 0-10-4.477-10-10 0-72.349 58.651-131 131-131h69c72.349 0 131 58.651 131 131 0 5.523-4.477 10-10 10z" fill="#91a3e5"/><path d="m130 303.5c18.502 0 33.5 14.998 33.5 33.5 0 18.502-14.998 33.5-33.5 33.5-18.502 0-33.5-14.998-33.5-33.5 0-18.502 14.998-33.5 33.5-33.5z" fill="#ea9d9d"/><path d="m163.5 337c0 9.25-3.75 17.62-9.81 23.69-6.07 6.06-14.44 9.81-23.69 9.81-5.39 0-10.49-1.27-15-3.54 3.23-1.62 6.16-3.74 8.69-6.27 6.06-6.07 9.81-14.44 9.81-23.69 0-13.11-7.53-24.46-18.5-29.96 4.51-2.27 9.61-3.54 15-3.54 18.5 0 33.5 15 33.5 33.5z" fill="#ed8080"/><path d="m398.5 325.5h-15v-56.5h12c4.142 0 7.5-3.358 7.5-7.5s-3.358-7.5-7.5-7.5h-39c-4.142 0-7.5 3.358-7.5 7.5s3.358 7.5 7.5 7.5h12v56.5h-15c-2.761 0-5 2.239-5 5v12.5c0 15.188 12.312 27.5 27.5 27.5s27.5-12.312 27.5-27.5v-12.5c0-2.761-2.239-5-5-5z" fill="#cecece"/><path d="m421.5 138.5c0 2.76-1.12 5.26-2.93 7.07s-4.31 2.93-7.07 2.93h-80c2.76 0 5.26-1.12 7.07-2.93s2.93-4.31 2.93-7.07c0-59.91-30.38-115.31-85.25-130.93.08-.02.17-.05.25-.07h34c72.35 0 131 58.65 131 131z" fill="#9ad0e8"/><path d="m421.5 138.5c0 2.76-1.12 5.26-2.93 7.07s-4.31 2.93-7.07 2.93h-30c2.76 0 5.26-1.12 7.07-2.93s2.93-4.31 2.93-7.07c0-72.35-58.65-131-131-131h30c72.35 0 131 58.65 131 131z" fill="#78b5c4"/><path d="m341.5 138.5c0 2.76-1.12 5.26-2.93 7.07s-4.31 2.93-7.07 2.93h-75.5v-140.85c.08-.03.16-.05.25-.08 54.87 15.62 85.25 71.02 85.25 130.93z" fill="#91a3e5"/><path d="m256 7.65v140.85h-75c-2.76 0-5.26-1.12-7.07-2.93s-2.93-4.31-2.93-7.07c0-59.82 30.28-115.14 85-130.85z" fill="#9ad0e8"/><path d="m454.5 398h-22.132c-2.72-15.746-14.125-28.531-29.06-33.145 4.807-5.994 7.692-13.592 7.692-21.855v-12.5c0-6.893-5.607-12.5-12.5-12.5h-15v-49h12c4.142 0 7.5-3.358 7.5-7.5s-3.358-7.5-7.5-7.5h-39c-4.142 0-7.5 3.358-7.5 7.5s3.358 7.5 7.5 7.5h12v49h-15c-6.893 0-12.5 5.607-12.5 12.5v12.5c0 7.433 2.336 14.326 6.302 20h-5.119c-13.188-18.16-34.573-30-58.683-30h-5v-149.5c0-4.142-3.358-7.5-7.5-7.5s-7.5 3.358-7.5 7.5v149.5h-15v-177h163c9.649 0 17.5-7.851 17.5-17.5 0-76.369-62.131-138.5-138.5-138.5h-69c-76.369 0-138.5 62.131-138.5 138.5 0 9.649 7.851 17.5 17.5 17.5h133v177h-5c-24.11 0-45.495 11.84-58.683 30h-8.14c5.822-7.081 9.323-16.139 9.323-26 0-22.607-18.393-41-41-41s-41 18.393-41 41c0 12.018 5.198 22.844 13.463 30.35-11.818 5.873-20.504 17.176-22.832 30.65h-22.131c-9.649 0-17.5 7.851-17.5 17.5v10c0 9.432 7.506 17.125 16.856 17.467l12.166 41.973c4.618 15.933 19.429 27.06 36.017 27.06h25.294c4.142 0 7.5-3.358 7.5-7.5s-3.358-7.5-7.5-7.5h-25.294c-9.953 0-18.839-6.676-21.61-16.236l-10.946-37.764h367.035l-10.946 37.764c-2.772 9.559-11.658 16.236-21.611 16.236h-241.628c-4.142 0-7.5 3.358-7.5 7.5s3.358 7.5 7.5 7.5h241.628c16.588 0 31.399-11.127 36.018-27.06l12.166-41.973c9.35-.343 16.856-8.035 16.856-17.467v-10c-.001-9.649-7.852-17.5-17.501-17.5zm-273.5-257c-.899 0-1.492-.459-1.767-.733-.274-.274-.733-.868-.733-1.767 0-57.137 27.143-103.119 70-120.341v122.841zm152.267-.733c-.274.274-.868.733-1.767.733h-68v-123.048c43.148 17.063 70.5 63.187 70.5 120.548 0 .899-.459 1.493-.733 1.767zm80.733-1.767c0 1.378-1.122 2.5-2.5 2.5h-62.697c.117-.823.197-1.654.197-2.5 0-31.901-8.038-61.688-23.244-86.14-9.59-15.42-21.663-28.004-35.699-37.36h.443c68.098 0 123.5 55.402 123.5 123.5zm-316 0c0-68.098 55.402-123.5 123.5-123.5h.943c-14.036 9.356-26.11 21.94-35.699 37.36-15.206 24.453-23.244 54.239-23.244 86.14 0 .846.08 1.677.197 2.5h-63.197c-1.378 0-2.5-1.122-2.5-2.5zm258 204.5v-10h40v10c0 11.028-8.972 20-20 20s-20-8.972-20-20zm35 35c12.4 0 22.868 8.484 26.022 20h-61.41c-.724-7.01-2.461-13.722-5.045-20zm-162.5-30h55c29.162 0 53.306 21.828 56.995 50h-168.99c3.689-28.172 27.833-50 56.995-50zm-98.5-37c14.336 0 26 11.664 26 26s-11.664 26-26 26-26-11.664-26-26 11.664-26 26-26zm-9 67h40.433c-2.584 6.278-4.321 12.99-5.045 20h-61.41c3.154-11.516 13.622-20 26.022-20zm-66 37.5c0-1.378 1.122-2.5 2.5-2.5h397c1.378 0 2.5 1.122 2.5 2.5v10c0 1.378-1.122 2.5-2.5 2.5h-397c-1.378 0-2.5-1.122-2.5-2.5z"/></svg>