<?xml version="1.0" encoding="iso-8859-1"?>
<!-- Generator: Adobe Illustrator 19.0.0, SVG Export Plug-In . SVG Version: 6.00 Build 0)  -->
<svg version="1.1" id="Capa_1" xmlns="http://www.w3.org/2000/svg" xmlns:xlink="http://www.w3.org/1999/xlink" x="0px" y="0px"
	 viewBox="0 0 512 512" style="enable-background:new 0 0 512 512;" xml:space="preserve">
<path style="fill:#B5D062;" d="M474.615,135.031c2.731,1.231,1.853,5.317-1.143,5.317H188.231H38.527
	c-2.996,0-3.874-4.086-1.142-5.317l217.521-98.013c0.696-0.314,1.493-0.314,2.189,0L474.615,135.031z"/>
<path style="fill:#BB6976;" d="M323.769,140.346H188.231l67.491-103.397c0.131-0.2,0.425-0.2,0.555,0L323.769,140.346z"/>
<path style="fill:#AD4756;" d="M192.165,134.32l-3.934,6.027h135.538l-54.452-83.42C251.862,89.751,224.928,116.761,192.165,134.32z
	"/>
<path style="fill:#DE9C86;" d="M364.735,343.881h-217.47c-1.592,0-2.882-1.29-2.882-2.882v-9.169
	c0-6.656,5.396-12.051,12.051-12.051h199.132c6.656,0,12.051,5.396,12.051,12.051v9.169
	C367.617,342.59,366.327,343.881,364.735,343.881z"/>
<path style="fill:#D68369;" d="M364.735,333.256h-217.47c-1.425,0-2.601-1.037-2.833-2.396c-0.026,0.321-0.049,0.642-0.049,0.969
	v9.17c0,1.592,1.29,2.882,2.882,2.882h217.47c1.592,0,2.882-1.29,2.882-2.882v-9.169c0-0.327-0.023-0.649-0.049-0.969
	C367.336,332.22,366.16,333.256,364.735,333.256z"/>
<path style="fill:#DE9C86;" d="M146.858,417.654h-96.57c-1.068,0-1.933-0.866-1.933-1.933v-22.17h92.352
	c4.464,0,8.084,3.619,8.084,8.084v14.086C148.791,416.789,147.925,417.654,146.858,417.654z"/>
<path style="fill:#D68369;" d="M146.858,408.144h-96.57c-1.068,0-1.933-0.866-1.933-1.933v9.51c0,1.068,0.866,1.933,1.933,1.933
	h96.569c1.068,0,1.933-0.865,1.933-1.933v-9.51C148.791,407.278,147.925,408.144,146.858,408.144z"/>
<path style="fill:#DE9C86;" d="M365.142,417.654h96.569c1.068,0,1.933-0.866,1.933-1.933v-22.17h-92.352
	c-4.464,0-8.084,3.619-8.084,8.084v14.086C363.209,416.789,364.075,417.654,365.142,417.654z"/>
<path style="fill:#D68369;" d="M461.712,408.401h-96.569c-1.068,0-1.933-0.866-1.933-1.933v9.253c0,1.068,0.866,1.933,1.933,1.933
	h96.569c1.068,0,1.933-0.865,1.933-1.933v-9.253C463.645,407.535,462.779,408.401,461.712,408.401z"/>
<path d="M504.494,492.946h-33.171V293.652c0-1.679,1.366-3.046,3.046-3.046c4.146,0,7.506-3.36,7.506-7.506
	s-3.361-7.506-7.506-7.506c-9.957,0-18.058,8.1-18.058,18.058v92.507h-84.923c-8.6,0-15.596,6.997-15.596,15.597v91.19h-32.537
	v-7.749c0-4.959-2.593-10.153-7.116-14.249c-4.787-4.337-10.793-6.61-16.059-6.093c-6.719,0.666-11.848,3.519-15.97,5.81
	c-3.259,1.812-5.833,3.243-8.258,3.243c-3.34,0-7.172-0.572-10.277-4.815c-1.208-1.652-1.982-3.931-2.073-6.3
	c0.004-0.302,0.004-0.604-0.002-0.906c0.075-2.089,0.698-4.194,2.036-5.955c2.8-3.687,7.462-3.965,7.641-3.974
	c4.263-0.177,7.174,2.578,7.709,3.13c2.889,2.975,7.641,3.046,10.614,0.156c2.974-2.888,3.044-7.64,0.156-10.614
	c-1.844-1.9-8.682-8.066-19.044-7.674c-1.115,0.043-4.842,0.324-9.106,2.166v-87.662h101.318c5.729,0,10.391-4.661,10.391-10.391
	v-9.177c0-10.79-8.778-19.568-19.567-19.568h-92.142V147.757h60.319h149.827c4.895,0,9.032-3.343,10.06-8.128
	c1.028-4.786-1.37-9.532-5.833-11.543L263.506,31.491V11.546c0-4.146-3.361-7.506-7.506-7.506s-7.506,3.36-7.506,7.506v19.945
	L34.121,128.087c-4.463,2.01-6.862,6.757-5.833,11.543c1.028,4.785,5.165,8.128,10.06,8.128h149.827h60.319v164.567h-92.142
	c-10.79,0-19.567,8.778-19.567,19.568v9.177c0,5.73,4.662,10.391,10.391,10.391h101.318v87.662
	c-4.264-1.843-7.991-2.124-9.105-2.166c-10.38-0.385-17.204,5.776-19.047,7.676c-2.887,2.975-2.815,7.727,0.16,10.614
	c2.975,2.887,7.727,2.816,10.614-0.16c0.535-0.55,3.417-3.303,7.689-3.129c0.197,0.01,4.859,0.288,7.659,3.974
	c1.338,1.761,1.961,3.867,2.036,5.956c-0.006,0.302-0.006,0.604-0.002,0.906c-0.091,2.37-0.865,4.649-2.073,6.301
	c-3.105,4.244-6.937,4.815-10.277,4.815c-2.426,0-5-1.431-8.258-3.244c-4.122-2.291-9.251-5.144-15.97-5.809
	c-5.27-0.516-11.271,1.757-16.059,6.093c-4.522,4.096-7.116,9.29-7.116,14.249v7.749h-32.537v-91.19
	c0-8.6-6.996-15.597-15.596-15.597H55.69v-92.507c0-9.957-8.101-18.058-18.058-18.058c-4.146,0-7.506,3.36-7.506,7.506
	s3.361,7.506,7.506,7.506c1.68,0,3.046,1.366,3.046,3.046v100.013v99.281H7.506c-4.146,0-7.506,3.36-7.506,7.506
	s3.361,7.506,7.506,7.506h496.988c4.146,0,7.506-3.36,7.506-7.506S508.639,492.946,504.494,492.946z M327.889,132.745
	l-51.577-79.017l175.363,79.017H327.889z M235.688,53.728l-51.577,79.017H60.326L235.688,53.728z M256,50.075l53.961,82.67H202.039
	L256,50.075z M151.797,331.892c0-2.512,2.043-4.556,4.555-4.556h199.296c2.512,0,4.555,2.044,4.555,4.556v4.556H151.797V331.892z
	 M370.804,401.755c0-0.323,0.262-0.584,0.584-0.584h84.923v9.11h-85.506v-8.526H370.804z M370.804,425.293h85.506v67.652h-85.506
	L370.804,425.293L370.804,425.293z M203.758,485.212c0.03-0.434,0.696-1.891,2.477-3.395c1.933-1.633,3.694-2.084,4.206-2.021
	c3.622,0.359,6.649,2.042,10.153,3.991c4.329,2.407,9.236,5.135,15.554,5.135c8.111,0,14.767-2.678,19.852-7.951
	c5.085,5.273,11.741,7.951,19.852,7.951c6.319,0,11.225-2.728,15.554-5.135c3.505-1.949,6.532-3.632,10.154-3.991
	c0.503-0.07,2.273,0.388,4.206,2.021c1.781,1.504,2.447,2.961,2.477,3.381v7.749H203.758V485.212z M141.196,401.755v8.526H55.69
	v-9.11h84.923C140.934,401.171,141.196,401.433,141.196,401.755z M55.69,425.293h85.507v67.652H55.69V425.293z"/>
<g>
</g>
<g>
</g>
<g>
</g>
<g>
</g>
<g>
</g>
<g>
</g>
<g>
</g>
<g>
</g>
<g>
</g>
<g>
</g>
<g>
</g>
<g>
</g>
<g>
</g>
<g>
</g>
<g>
</g>
</svg>
